<svg id="Layer_1" data-name="Layer 1" xmlns="http://www.w3.org/2000/svg" viewBox="0 0 40.55 39.85"><title>states</title><path d="M.69,30.12l0-.08L1,29.87l.73.13.3-.06.07-.1v-.26l0-.12.09-.09.26-.16.08-.09,0-.15-.11-.45v-.09l0-.06V28.3l0-.09L2.25,28,2,27.86l-.64,0-.28-.09-.21-.25,0-.25L1,27l0-.3L1,26.26l0-.1L.71,26l0-.1.07-.19.08-.08,0-.06,0-.08-.06-.05L.7,25.3l0-.08.07,0,.34,0,.17,0L1.38,25l.26-.41.06-.18.08-.07.13-.12.1-.1,0-.05,0-.09,0-.15v-.1l.06,0,0,0v-.23l0-.17.08-.1.08-.08L2.35,23l-.08-.12,0-.08,0,0,0,0v-.17l0,0-.09-.07,0-.17V22l.13-.08.05-.07v-.06l-.13-.13-.06-.08,0-.08,0-.16.11-.1.28-.15.11-.1.11-.11.08-.14.06-.3L3,20.31l.11-.09.25-.07.72-.43.14,0,.22-.24.24-.19.22-.14L4.94,19l-.05-.15v-.1l-.22-.12-.08-.07-.07-.05-.12-.06-.59-.35-.1-.1,0,0-.14-.07,0,0,0,0,0,0h-.2l0,0,0,0,0-.09v-.06h0l0-.1,0-.11-.07-.07h0l0-.14L3,17.08,2.91,17l-.09-.12v-.27l0,0,0,0-.46-.78-.19,0L2,15.69l-.08-.13,0-.2,0-.08-.06-.11-.08-.1-.1,0-.11,0-.05-.08-.07-.82V14l-.06-.23.16-.18,0-.07,0-.09-.13-.13,0-.06,0-.1.07,0h.19l.09,0,0,0,.06-.28v-.15l0-.28L1.63,12l0-.18v-.18l-.06-.17-.23-.37-.13-.34-.12-.28.15-.34,0-.3.05-.15,0-.12L1,9l0-.14,0-.19V8.29l0-.1L1.06,8l0-.08V7.85L1,7.79l-.28-.3-.1-.16L.58,7.14V7l.12-.1,0-.08V6.69l0-.16V6.39l0,0L.78,6.3l0,0,0,0,.23-.09.23-.12L1.71,6l.11,0h.12L2.32,6h0l0,0,.06,0,.07,0,.1,0H2.8L3,6,3,6H3.2l.07,0,.06,0,.08.06.07.08,0,.06.16.29.06.08.09.09L4,6.81l.16.06h.18l.35,0,.24-.11L5,6.41l.09-.26.08-.21.13-.15.14-.15,0-.07V0H40.55V39.81H26.79l-.43-.05-.19-.06-.36-.11-.36-.12-.36-.12-.36-.11-.37-.12L24,39l-.36-.11-.36-.12-2.87-.89L17.53,37l-2.87-.89-2.87-.89-2.88-.89L6,33.48l-2.87-.89L.29,31.71,0,31.63H0l.09-.07.1-.29V31.1L.14,31l.11-.18,0-.05.16-.12.06-.05.08-.12.06-.12,0-.18Z"/></svg>