<svg id="Layer_1" data-name="Layer 1" xmlns="http://www.w3.org/2000/svg" viewBox="0 0 46.9 39.88"><title>states</title><path d="M37.84,1.78v.05l.15,0h0l.08,0h.1v.06h0l0,.05v.1l-.05.17,0,.52,0,.18-.1-.06,0-.09V2.47l0-.06,0-.05-.05,0-.06,0v.41l0,.09.11,0v0l.17.12,0,0,0,.09,0,0,0,0,0,0,0,0,0,.06,0,.08,0,.2,0,0,0,0,0,0,0,.06,0,.28v.25l.2.68.05.11.16.73.25.78,0,.2h0l.05,0,0,.06v.08l0,.14,0,.09,0,.31,0,.12.07.2.08.17.1.27.13.26,0,.12,0,.12.24.49.41.88.41.79.27.51.19.32.1.08,0,.12.08.07.11.07,0,.11,0,.12.83,1.24.39.56.33.41.37.57.15.41.09.12-.08.13-.11.11h0l0,0,0,.06,0,0,0,0,0,0v.6l0,.08,0,0v.14l0,.33.13.63.08.18,0,.1.12.26.5.68v.26l-.15-.25,0-.06,0,0-.18-.2-.06-.21L43.52,18l-.19-.49-.06-.26,0-1.06.18-.79v-.24l0-.25,0-.09,0-.06-.09,0h-.14l0,0,0,0h0v.13l-.08,0h0l-.4-.06-.11,0-.08-.09,0-.09v-.13l0-.12,0-.08,0,0,.06-.09,0-.12,0-.11-.27-.09L42,13.69l-.12,0,.1.56.07.15v0l0,0,.19.33,0,.12,0,.25.14.6.06.13.11.35.19.33,0,.15,1,1.94,1,1.95.22.94.91,2v.1l-.06-.12-.07-.06-.25-.06-.13-.06-.05,0,0,0,0,0h-.08l0,.05.15.16h0l.1.06h0l.14,0h.05l.23.23,0,.08.17.08,0,.1,0,.09.15.27.13.33.12.23v.07l0,.07-.06,0h-.08l-.07,0v0l.08,0,.14,0,.06,0,0,.06.16.59V26l-.1.09v0l.08.1,0,.19v.79l0,.18h-.1l-.05.84-.06.19,0,.09v.32l0,.09,0,.13-.15.92-.06.18-.1.07v.05l.1.13-.1,1.82h0V32l0-.28v-.16l0-.08h-.05l-.22.26L46,32l-.07.16v.26l-.09.12-.06,0h-.12l-.07.06,0,0v.15l-.13.27-.18.16,0,.12v.3l0,.1-.1.13L45,34v.11l0,.13,0,0,0,0,0,0-.05.08,0,.12,0,.05.07,0,.05,0v.07l-.22.18-.28.29,0,.05v0l0,.06-.11.11v.19l.07.09.08.07v.06l-.1-.07-.12-.16-.08,0v-.1h-.1l-.12,0-.08.08.14,0,.11,0,.07.1,0,.13h0l0-.14-.09-.08h-.13l-.1.06,0,0,0,0,0,0,0,0,0,0v0H44v0l0,0h-.33l-.09,0-.06.1-.05.14,0,.09-.1,0h0l0,0-.23,0,0,0v.06l0,0v0l0,0h0l-.1,0-.08,0-.12.11h-.18l-.1,0-.06-.07v0h0v0l0,0h0l0,0,0,0,0,0,0,0h-.08v0l0,0-.19,0-.09-.07-.17.1h0l-.14.14-.11,0h-.24l-.2,0-.25,0-.29.07-.09,0L40,36l-.11-.19-.07-.19v-.19l.07-.25L40,35l.11-.08,0,.09h.07l.07,0,.07.06,0,0,.11.19h0l.08.05.47.19v0h0l0,0h0v0l.11,0h.13l.14,0,.11-.07.06-.13,0-.11-.35-.34L40.93,35l-.22,0-.1-.06h0l-.23,0-.29-.21,0-.07v-.06l0-.13v-.06l-.09-.24-.2-.2-.07-.12.12-.07,0,0,0,0v0l-.06,0-.14,0-.07,0,0,0-.06-.28L39.28,33v-.08l-.05,0,0-.07v-.11l-.21,0h-.05l0-.06-.07-.16,0,0-.08,0,.06-.07.16-.11,0,0L38.77,32l-.14-.12-.15-.09-.08,0-.18,0-.08,0-.07-.06-.08-.1-.06-.05-.08.08-.07,0-.07-.06-.13,0-.08-.06h-.08l-.07.06H37.3l0,0v-.07h-.06l-.06,0-.07,0,0-.07-.06,0-.05.09-.06,0h-.15l-.06,0,0-.05,0,0,0,.05h0l0,0v0h-.1l-.06-.07,0-.05,0-.18.09,0,.07,0,.07.06.07,0,.06,0,.06-.07,0-.08,0-.08h-.09l-.14,0-.06,0-.07,0-.05-.07,0-.08,0-.06-.17-.12-.1-.16L36.06,30l0,.06,0,.06v.13H36l-.11-.44,0-.49,0-.21v-.06l-.18-.3,0-.11h0v.05h0v-.39l0-.12,0-.09-.12-.2-.05-.09v.09l0,.15,0,.06h-.06l0,0,0,0h-.13l-.34-.17-.08,0h0l0,0,0,.05V27.7l0-.05h0l0,.07,0,0h0l0,0,0,0,.17-.11.17-.14.11-.17,0-.16.07-.08.27-.24,0-.05.06-.06.06,0,.07,0,.06,0,0-.05,0-.05,0-.08-.1,0-.14.08h-.12l-.1,0-.12.09-.2.19-.07.1-.19.48,0,0,0,0-.15,0-.05,0v-.09l-.13.05-.08.05h-.08l-.1-.1,0-.1v-.08l0-.09V27.1l0-.11-.11-.22,0-.09v-.14l.15-.72v-.29l0-.05-.08,0-.13-.1v-.08l.12-.08.31-.17.14,0,.05,0,0,0,.07-.19-.1,0-.13.11-.25.05-.11,0-.11,0-.14,0,0,.1-.07,0h-.08l0,.06,0,0-.06,0L33.61,25l0-.11-.06,0-.1.05-.09,0-.12-.19-.07-.07-.13-.06,0,.06.07.11.18.2.07.06,0-.05.07.07.08.19,0,0,0,0,.09.22.06.28v.09l0,.08-.05,0,0-.18-.06-.06v0l0,0,0,0,0,0h0l-.06-.06,0,0h0l0,0h-.08l-.06-.05,0,0-.09,0H33l-.19-.12-.18-.52-.16-.17V25l.09.14,0,.1-.08,0,0,0,0,0,0-.13-.55-1-.07-.22-.14-.25,0-.14,0,.07,0,0,0,0v-.1l0-.09-.05-.07-.06,0v.08h0l-.07-.13-.1-.12L31.28,23v-.14l0,0h0l0,0,0,0h0V22.8l-.12-.24-.07-.3-.09-.08L31,22.13,30.76,22l-.23,0-.09,0-.07-.09-.12-.27,0-.1h0l.09.2,0,.05.06,0,.16.07.07.06,0,0,0,0,0-.06v-.06h0l0,0h-.05l0,0,0,0,.11-.11.15,0,.16.07h.13l-.06-.05-.07,0-.07,0h-.09l.09,0,.18,0,.09-.06,0-.07h-.1l-.08,0h0l-.11,0,0-.05v0H31l.07-.06v0l0-.05.13-.08.06-.12,0-.12.08-.13.17-.12,0-.05,0-.07,0,0,.06,0,0,0,.1-.17,0,0,.17-.11,0-.06.2-.2.05-.1v-.14l-.13-.25L32.15,19,32.07,19H32l-.12.06-.06.07,0,.1v.23l0,.09v.06l0,.06H31.5l-.08-.12v-.15l0-.3,0-.16-.11-.08-.16,0h-.2v-.05l.13,0v-.05l-.17-.08-.08-.06-.05-.06h0v.08l-.25-.21,0,.05.05.1v.09l0,.07v0l0,.05v0h.28l-.08.08-.28.07-.1.1.24.09.23.12.24.08.26,0-.05,0-.2.1v.08l0,.13v.07l0,.06-.08.1,0,0v0l-.07.19,0,.1,0,.11-.07.09-.1,0h-.15l0,0v-.21l-.13,0-.08,0L30.18,20l-.11-.11-.23-.17-.12-.11,0,.09,0,.09.37.35.07.11.1.22,0,.13v.08h-.08l-.07-.11,0-.14,0-.1L30,20.06l-.38-.33-.08-.14,0-.09-.05-.17,0-.12,0-.12.05-.1.07-.09.06,0-.05.08-.05.1v.11l0,.09.21-.5.13-.56V18l0-.07.05-.06L30,17.78l0-.09,0-.15v-.21l0-.08,0,0,.09-.08,0-.08,0-.17.13-.18.05-.08V16.6l0,0h0l0,0,.22-.52.07-.08V16l.14-.21v-.4l.06-.19,0-.53.07-.11,0,0,0-.05v-.06l0,0,.05-.06v0l0,0v-.27l0-.05h-.09l0,0,0-.08-.12-.14,0,0,.09-.1.1,0,.15.17-.05-.18v-.07l0-.29v-.09L30.77,13l0,0h-.12l-.05,0,0,0-.26-.29,0-.1,0-.13h-.08l-.07,0,0-.05,0-.06,0-.07V12l-.23-.16-.07-.11.13-.07-.1,0-.05-.08,0-.09v-.13l-.12.06-.05,0,0,0-.07-.06,0,0-.13.07h-.14l-.14-.05-.1-.06-.08,0h-.17l-.09,0-.11,0h-.12l-.11,0,0-.07v-.08l0,0h-.09L28.12,11V11l.08-.06-.05-.06,0-.08-.06-.08-.09,0-.09,0-.11,0-.1-.06-.06,0,0,0,0-.06v-.13h0L27.43,10l-.19-.22-.1-.11L27,9.62l-.15,0-.17-.12-.32-.32h-.06l-.08,0-.15-.1,0-.06V8.92l0-.09,0-.06.07-.07,0-.12V8.44l0-.13-.07-.08-.11,0-.12,0-.12,0-.06,0L25.57,8l0,0-.21-.08-.1-.07-.12-.11L25,7.63l0-.11V7.46l0-.15,0-.06-.06,0-.06,0,0,0L24.72,7l-.24-.21-.05-.08-.06-.06-.27-.18-.08,0-.1,0-.08,0-.13-.13-.15,0-.27-.11-.59-.32-.45-.32h-.12l-.2.07-.44,0-.13.07-.06,0,0-.06,0-.07,0,0h0l0,0h-.07l0,.06h-.16l0,0h-.06l-.06,0-.05.07,0,.07v0h-.27l-.22.11,0,0V6l0,0h0l0,0L20,6l0,0h0l0,.05,0,0,0,.06,0,0,0,0,0,0,0,.06.13.13,0,0h-.09L20,6.29l-.21,0-.12-.07-.09,0-.08.1h.1l0,0v.07l.06,0,.38,0,.19.06,0,.13-.08.14-.17.09.06-.06,0,0v0l-.23-.07-.25,0-.12,0-.12,0h-.1l-.07-.06-.34.17L18.67,7l-.3.08-.19.11-.31.26-.08,0-.16,0-.1,0-.15.1-.09.05-.12,0-.09,0L17,7.82l-.07,0,0-.1,0,0,.19-.27-.1,0-.09,0-.08,0-.09,0-.08,0-.11.16-.16,0-.12.17-.08,0-.49,0h-.25l-.72.21H14.6l-.14,0h-.14l-.23.09L14,8.11,13.86,8l-.06-.09-.11-.52,0-.32L13.76,7l0,.06,0,.42,0,.15,0,.14.07.12.16.22,0,0h.08l.06,0L14.32,8l0,0,0,0V7.86l0-.44-.06-.13-.2-.22,0-.09,0-.12-.09-.11-.11-.1-.1-.07L13,6.29l-.18-.14,0,0,0,0,0,0V6h0l.07.1L13,6.2l.14.08h.13l-.79-.56-.08,0-.31-.26L12,5.35l.05,0,.37.06v.12l.4.1L13,5.7l.1.13.21.14.22.08.1,0,.05,0,.1,0,.07,0,0-.07,0,0h-.15l0,0v0h0l-.05,0-.08.14-.06,0-.09,0-.06-.1V5.61l0-.09-.11,0,0,0,0-.1.09-.06v0h-.12l-.09,0-.1,0-.11,0v.09l0,0-.08-.06-.13-.08-.15,0-.1,0-.05-.07-.06,0-.21-.1-.05,0,0,0L11.77,5l.14-.07.25-.28h.1l.15,0,.24-.25h.14l-.07-.15-.06-.08-.06,0-.06,0-.15.22-.11.07,0-.08h-.07l-.09,0L12,4.5l-.07,0,0,.07,0,.05-.08,0V4.52l0-.09-.08-.1-.08-.13-.07.11-.07.05-.19,0-.11,0L11,4.46,11,4.54l0,.11.1.07h.07l.08,0,.13,0,.11,0,.07.06.06.07.08.06L11.6,5l0,.07.12.07.1.08,0,.09-.08-.07h-.05l0,0,0,.06-.14,0-.75-.48-.52-.23-.72-.32-.78-.21L7.79,3.82l-.74-.07-.16-.09h0v0l.09,0,.5,0,.4.08.08,0,0-.08,0-.08,0-.07h.05l0,.07.05.07.06.06.28.06,0,0,0,0,0,0,0,0H8.53l-.08,0v0l.07,0H8.6l.09,0,.17.12.29.07.06,0,.11.07.06,0V3.7l-.05,0v0l-.19-.17,0-.1,0,0,0,0v-.1L9,3.26l-.11,0-.08-.06-.07-.16-.1.08H8.54l-.26,0-.12,0-.26.06H7.78l-.09,0-.08.06-.08.05H7.41l-.08-.08,0-.1L7.5,3H7.29l0,0,0,.07h0L7.08,3l0-.08V3l0,.16,0,0L7,3.25l-.07,0-.08,0H6.76l-.06,0-.07.08-.08,0-.15,0v.12l-.07,0-.48,0-.5.05-.14-.05-.13.06-.18,0H4.56l-1,.11L3,3.92,2.67,4l0-.07,0,0h0L3,3.75l.37-.09h.34l.11,0,.4-.28.08,0,.12,0,.09,0V3.4l-.08-.07-.13-.06-.13,0H4.09l0,0L4,3.09l0,0H3.82l0,0V3l0-.09L3.9,2.8l.21-.08V2.67l0,0L4,2.7l-.06-.08-.07-.13-.13-.06.06.1V2.6l0,0L3.58,3l-.08.14,0,.21-.06.07H3.3l0-.07v-.1l0-.08,0-.09,0-.11-.06-.08-.13,0v0l0-.07v0H3l0-.06,0-.06-.07,0-.09,0,0,.06,0,.2,0,.07.12.16,0,.11,0,.08-.14.23H2.67l0,.14-.12,0H2.36l-.11.06,0,.06,0,.15,0,.06L2.17,4,2,4,2,4l0,.11-.14,0L1,4.36l-.1.06,0,0-.14,0-.07,0v0l.07,0,0,0,0,0,.06,0,.07,0,.23,0L1,4.19l-.11,0,.08,0h.15l.08,0,.07,0L1.32,4V4l-.07,0V3.86l.18-.19.11-.07.15,0,.06,0V3.46l0-.08-.05-.06-.06,0-.12,0-.05,0-.05,0-.1-.06h0l-.12-.3V2.79l0-.06.1-.16.05-.17,0-.21V2l0,0L1.3,2,.8,1.71.72,1.65l-.09-.1L.5,1.34l0,0L.17,1,.1,1,0,.88,0,.83V.71L0,.65.17.41v0l0-.29L.21,0h16V.1l0,0,.11.06,0,0,0,.07.05.19.05,0,.09.15,0,.15v.26l.09.4.28.26h.84l.32,0,.37,0,.42,0,.48,0,.51,0,.56,0,.58,0,.62,0,.64,0,.66,0,.68,0,.69,0,.69,0,.7,0,.69,0,.68.05.67,0,.66,0,.63,0,.6,0,.58,0,.54,0,.5,0,.45,0,.4,0,.35,0,.29,0H33l.26,0h0v0l0,0,0,0v.07l0,0,.14.17,0,0,0,.06V3.3l0,.09v.14l0,.06.09.22,0,.06,0,0,0,0h.1l.29,0h0l.12,0h0l.17,0,0,0,0,0V3.77l0-.18V3.47l.13-.38.08-.41V2.52l0,0-.12-.15,0,0,0-.06V2.06l0-.15V1.84l0-.15V1.55l.08-.06,0,0v-.1l0,0h.2l0,0,0,0V1.22h0v0l0,0,0,0h.32l.09,0,.05,0,.09,0,.56.2h.11l.09,0,.06,0,0,0,.06,0,.09,0,.3.08H37l.09.05.06,0,.25.05h.06l.2-.05.11,0ZM36.32,39.67l0,0,0,0,0,0v0h0l0,0,0,0v0h0l0,0,0,0,0,0-.06,0-.09,0-.18,0,0-.1h0l.07,0h.07l0,0,.13-.1Zm.25-.13.06,0h.07l.17,0v0l0,.1-.47.13,0,0,.06-.07v0l0,0v-.06l0,0Zm1.23-.25v0l-.15.1-.21.08-.44.12v0l.12-.1.07,0,.06,0,.13-.06,0,0,0,0h0l0-.06-.09,0,0,0,0,0,.18,0,.08,0,0,.07h0l0-.08,0-.06-.07,0H37.5v-.05l0,0v0h-.11l0-.13h0v0h0l0,.06ZM40.38,39l0-.1-.07,0h-.19l.12,0,.34-.1h.13v0l0,0-.15.05,0,0,0,.06Zm-2.11-.43,0,0h.06l.18.13.2.25.09.25-.13.09v-.18Zm3.13-.09,0,0h0l-.08,0-.09.07-.46.18.48-.3.2,0Zm.76-.46v.1h0l0,0h0v0l0,0-.05,0-.1,0-.23,0,.06-.07Zm3-2.5-.2.27-.08.15,0,.09v0l-.5.45-.07,0-.07,0,0,.06,0,.15,0,.06L43.9,37l-.23.28-.14.12h-.12l0-.06,0,0,.1,0,.07,0,.07-.22,0,0h.1l.05,0,.09-.13.15-.15,0-.07,0-.08h.13l.07,0,0-.07,0,0v0h0l0,0,0-.07,0-.06-.07,0-.09,0,0-.11.28.06.12-.27.23-.23.05-.13v-.09l0,0,0,0,0-.07,0,0,.2,0,.08-.05.17-.22.1-.06.14,0,0,0,0,0h0l0,0,0,0,0,.07,0,.07,0,0,0,.06Zm.81-1.44,0,.14,0,.14-.09.13-.09.07h0l.09-.06.05-.1.1-.36,0,0,0,0v.1Zm.17-1.18H46l0,0v-.07l.06-.05,0,0H46v0l.05,0,0,0,0,0,0,0h0l0,.34ZM34,28l.21,0h.12l0-.07.26.13-.12,0-.16.12-.1,0-.1,0-.37-.2L33.67,28,33.61,28l0-.1-.06-.19,0-.19,0,0,0,.05,0,.06,0,.06,0,.13.08.1.09.07Zm-.81-1.48h0l0,0v.15l.09.23,0,.13L33.27,27l-.05-.12Zm.77.72,0-.16-.08-.18-.12-.2-.08-.18h.09l.12,0,.12.11.07.14-.06.22.07.14.1.13.05.09,0,.32v.1l-.08,0-.08-.13-.09-.3Zm-.85-1.35.07.14,0,.14v.13l0,.13-.06-.13V26L33,25.92l0,0h0Zm-2.37-3.67,0,0-.08-.11,0-.08.1.05.06,0,.15.25.23.25,0,.09L31,22.62l-.26-.27Zm14-2v-.06L44.57,20l-.18-.46-.07-.13,0,0h.06v0h0l0,0,0,0,0,.25.12.25.25.39.09.23,0,.13v.13l0,.1,1,2.53,0,.14L46,23.45l-.13-.13-.06-.24-.38-.74,0-.09,0,0-.09-.06v-.11l-.08-.2L45,20.92l-.05-.1-.06-.08,0-.09,0-.19-.06-.12Zm-1.53-2.86v-.14l0-.12.1.2,0,.06ZM42.92,15l.13-.09.08,0h.09l.1.18,0,.2-.19.38-.05.24,0,.75,0,.11v.06l0,.07L43,17l0,.1v.09L43,17l-.22-.59-.09-.14,0-.11-.06-.5-.05-.1,0-.2,0-.17h.13l0-.1,0-.05ZM15.35,8.39l-.06,0,0,0-.05-.06,0,0-.06,0-.13,0-.06-.05.25,0h.12l.09-.06.15,0,.08,0h.09l0,.06,0,0,0,0,0,.06,0,.06,0,.06h-.07Zm2.5-.59.08,0L18,7.67l.08,0v0h0l-.05,0v0l-.14,0-.37.25-.61.23-.13.09-.38.19-.13,0h-.36l-.14,0-.16-.09.1,0,.17.09H16l.27-.06L17.62,8l0,0V7.89h.12l0,0,0,0Zm.74-.42.14-.08.06,0h.05l-.06.12-.14.07-.35.06.05,0ZM5.76,3.66,6,3.61l.26,0,.58.07-.05,0H6.64l-.07,0h0l-2.09.23-2.1.23L2,4.12l.11,0h.5L3.37,4l.36-.11h.44l.15-.05h.06l.17-.06h.36l.67-.08.14-.06ZM34,39.79h0l0,0-.06,0v0Zm0-.17,0,0,0,0h-.07l0,0h.07l.07,0,.06,0,0,.07,0,.06v0Zm4.3-.43,0,0,0,0,0,0,0,0Zm1-.1h0v0l0,0-.06,0h0ZM38.16,39l0,0v.13h0l0,0-.07,0v0l0,0h0v0ZM38,39v.18l0,0,0,0,0,0h-.14v0l0,0V39l0-.07h.08l.05,0,0,0Zm.94-.12.06,0L39,39l0,0,0-.05-.06,0,0,0,0,0,0,0Zm3.88-1.1v0l-.07.07,0,0-.1.06h0l0,0,0,0,0,0Zm.47-.34,0,0v0h0l0,.07-.13.12-.07,0Zm-2.61-2.31,0,0,0,.06,0,.08,0,0,0,0h-.05l0-.08,0-.08,0,0h.15ZM40.38,35V35l0,0v.06l-.06,0-.05,0L40.17,35l0,0h0v0h.15Zm-1.8-3,0,0,0,0,0,0h-.07l0,0,0,0v0l0,0h0l-.06-.08-.05,0,0,.05h0v-.24l.06-.05.11.05,0,0,.12.08Zm-.45,0h0l-.05,0,0,0,0,0,0-.05h-.09l0,0,0,0,0,0v.1h0v0l0,0v-.06l.09,0h0l0,0H38l0,0,.05.09v.06l0,0V32Zm-1.38-.47.08,0,0,.06-.07.12,0,0h-.08l0,0,0,0,0,0,0,0h0v-.09h.2Zm.84.07,0,0v0l0,.05,0,.1,0,0v-.15l0,0,0,0,0,0,0-.05h.08l0,.05h0ZM30.64,14v.08l0,0h0l0,0v0l-.09,0v0h0v0l0,0h.11Zm-.19-.18,0,0v0l0,0,0,0,0,0h0l.05,0,0,.05v.06l-.05,0h-.1Zm-2.11-2.35,0,0h0l-.08,0-.05,0v-.08l0,0,0,0Z"/></svg>